<?xml version="1.0" standalone="no"?>
<!DOCTYPE svg PUBLIC "-//W3C//DTD SVG 20010904//EN"
 "http://www.w3.org/TR/2001/REC-SVG-20010904/DTD/svg10.dtd">
<svg version="1.0" xmlns="http://www.w3.org/2000/svg"
 width="133.000000pt" height="43.000000pt" viewBox="0 0 133.000000 43.000000"
 preserveAspectRatio="xMidYMid meet">

<g transform="translate(0.000000,43.000000) scale(0.100000,-0.100000)"
fill="#000000" stroke="none">
<path d="M1112 295 c0 -22 2 -33 5 -25 3 8 11 21 17 29 8 11 8 13 -1 8 -7 -4
-13 0 -16 10 -3 10 -5 0 -5 -22z"/>
<path d="M1193 323 c9 -2 17 -9 17 -14 0 -5 -8 -9 -17 -9 -15 0 -16 -2 -3 -10
10 -6 17 -5 23 6 10 18 0 34 -21 33 -15 -1 -15 -2 1 -6z"/>
<path d="M130 293 c-28 -10 -40 -37 -40 -93 0 -88 9 -94 133 -98 143 -5 147
-3 147 99 0 76 -1 80 -26 89 -26 10 -188 12 -214 3z m110 -68 c17 -9 30 -20
30 -25 0 -8 -51 -40 -65 -40 -3 0 -5 18 -5 40 0 45 0 46 40 25z"/>
<path d="M410 199 c0 -68 3 -90 13 -87 6 3 13 17 15 31 2 15 7 27 12 27 19 0
40 34 40 65 0 36 -20 55 -59 55 -20 0 -21 -6 -21 -91z m50 37 c0 -14 -4 -28
-10 -31 -6 -4 -10 7 -10 24 0 17 5 31 10 31 6 0 10 -11 10 -24z"/>
<path d="M790 276 c0 -9 7 -16 16 -16 17 0 14 22 -4 28 -7 2 -12 -3 -12 -12z"/>
<path d="M500 180 c0 -47 3 -60 15 -60 11 0 15 12 15 45 0 25 5 45 10 45 6 0
10 7 10 16 0 14 -3 14 -15 4 -10 -9 -15 -9 -15 -1 0 6 -4 11 -10 11 -6 0 -10
-27 -10 -60z"/>
<path d="M565 217 c-18 -69 16 -130 52 -95 20 21 10 36 -12 18 -13 -10 -15 -9
-15 9 0 15 6 21 21 21 17 0 20 5 17 33 -2 26 -8 33 -30 35 -22 3 -29 -2 -33
-21z m45 -11 c0 -8 -4 -18 -10 -21 -5 -3 -10 3 -10 14 0 12 5 21 10 21 6 0 10
-6 10 -14z"/>
<path d="M650 178 c0 -69 18 -78 22 -11 4 66 28 70 28 4 0 -64 18 -67 22 -4 4
66 28 70 28 4 0 -28 5 -51 10 -51 6 0 10 26 10 59 l0 60 -60 -1 -60 -1 0 -59z"/>
<path d="M790 180 c0 -47 3 -60 15 -60 12 0 15 13 15 60 0 47 -3 60 -15 60
-12 0 -15 -13 -15 -60z"/>
<path d="M830 188 c0 -68 8 -80 48 -72 32 6 32 7 32 65 0 46 -3 59 -15 59 -12
0 -15 -13 -15 -55 0 -30 -4 -55 -10 -55 -5 0 -10 25 -10 55 0 42 -3 55 -15 55
-11 0 -15 -12 -15 -52z"/>
<path d="M930 179 c0 -33 4 -59 10 -59 6 0 10 23 10 51 0 66 24 62 28 -4 4
-63 22 -60 22 3 0 28 5 50 10 50 6 0 10 -22 10 -50 0 -38 4 -50 15 -50 13 0
15 11 13 58 l-3 57 -57 1 -58 1 0 -58z"/>
</g>
</svg>
