<?xml version="1.0" standalone="no"?>
<!DOCTYPE svg PUBLIC "-//W3C//DTD SVG 20010904//EN"
 "http://www.w3.org/TR/2001/REC-SVG-20010904/DTD/svg10.dtd">
<svg version="1.0" xmlns="http://www.w3.org/2000/svg"
 width="19.000000pt" height="22.000000pt" viewBox="0 0 19.000000 22.000000"
 preserveAspectRatio="xMidYMid meet">

<g transform="translate(0.000000,22.000000) scale(0.100000,-0.100000)"
fill="#000000" stroke="none">
<path d="M76 179 c-18 -21 -26 -42 -26 -69 0 -21 -4 -42 -10 -45 -27 -16 -3
-25 70 -25 73 0 97 9 70 25 -5 3 -10 24 -10 45 0 27 -8 48 -26 69 -14 17 -29
31 -34 31 -5 0 -20 -14 -34 -31z m68 -15 c9 -8 16 -32 16 -53 0 -20 5 -42 12
-49 9 -9 -4 -12 -62 -12 -58 0 -71 3 -62 12 7 7 12 29 12 49 0 41 21 69 50 69
10 0 26 -7 34 -16z"/>
<path d="M98 18 c9 -9 15 -9 24 0 9 9 7 12 -12 12 -19 0 -21 -3 -12 -12z"/>
</g>
</svg>
