<?xml version="1.0" standalone="no"?>
<!DOCTYPE svg PUBLIC "-//W3C//DTD SVG 20010904//EN"
 "http://www.w3.org/TR/2001/REC-SVG-20010904/DTD/svg10.dtd">
<svg version="1.0" xmlns="http://www.w3.org/2000/svg"
 width="52.000000pt" height="52.000000pt" viewBox="0 0 52.000000 52.000000"
 preserveAspectRatio="xMidYMid meet">

<g transform="translate(0.000000,52.000000) scale(0.100000,-0.100000)"
fill="#000000" stroke="none">
<path d="M242 331 c-9 -5 -12 -25 -10 -57 3 -45 5 -49 28 -49 23 0 25 4 28 49
3 44 -6 66 -28 66 -3 0 -11 -4 -18 -9z"/>
<path d="M201 242 c-1 -22 19 -52 34 -52 8 0 15 -7 15 -15 0 -8 5 -15 10 -15
6 0 10 6 10 14 0 8 9 17 19 21 20 6 38 41 27 52 -3 4 -6 -1 -6 -10 0 -9 -11
-24 -24 -32 -29 -19 -62 -7 -76 28 -5 12 -9 16 -9 9z"/>
</g>
</svg>
