<?xml version="1.0" standalone="no"?>
<!DOCTYPE svg PUBLIC "-//W3C//DTD SVG 20010904//EN"
 "http://www.w3.org/TR/2001/REC-SVG-20010904/DTD/svg10.dtd">
<svg version="1.0" xmlns="http://www.w3.org/2000/svg"
 width="24.000000pt" height="19.000000pt" viewBox="0 0 24.000000 19.000000"
 preserveAspectRatio="xMidYMid meet">

<g transform="translate(0.000000,19.000000) scale(0.100000,-0.100000)"
fill="#000000" stroke="none">
<path d="M20 100 l0 -70 80 0 80 0 0 30 c0 28 2 30 20 20 18 -10 20 -8 20 30
0 38 -2 40 -20 30 -17 -9 -20 -8 -20 10 0 18 -6 20 -80 20 l-80 0 0 -70z m150
39 c0 -16 4 -19 20 -14 16 5 20 2 20 -15 0 -17 -4 -20 -20 -15 -17 5 -20 2
-20 -24 l0 -31 -70 0 -70 0 0 60 0 60 70 0 c64 0 70 -2 70 -21z"/>
<path d="M90 125 c0 -8 -7 -15 -15 -15 -8 0 -15 -4 -15 -10 0 -5 7 -10 15 -10
8 0 15 -7 15 -15 0 -8 5 -15 10 -15 6 0 10 7 10 15 0 8 7 15 15 15 8 0 15 5
15 10 0 6 -7 10 -15 10 -8 0 -15 7 -15 15 0 8 -4 15 -10 15 -5 0 -10 -7 -10
-15z"/>
</g>
</svg>
