<?xml version="1.0" standalone="no"?>
<!DOCTYPE svg PUBLIC "-//W3C//DTD SVG 20010904//EN"
 "http://www.w3.org/TR/2001/REC-SVG-20010904/DTD/svg10.dtd">
<svg version="1.0" xmlns="http://www.w3.org/2000/svg"
 width="50.000000pt" height="50.000000pt" viewBox="0 0 50.000000 50.000000"
 preserveAspectRatio="xMidYMid meet">

<g transform="translate(0.000000,50.000000) scale(0.100000,-0.100000)"
fill="#000000" stroke="none">
<path d="M104 403 c-49 -7 -66 -33 -72 -112 -7 -100 4 -158 33 -177 53 -34
323 -30 367 6 21 17 23 26 23 129 0 154 1 154 -182 157 -76 1 -152 0 -169 -3z
m314 -37 c14 -13 17 -36 17 -116 0 -139 5 -135 -190 -135 -191 0 -187 -2 -192
122 -6 147 4 153 220 149 105 -2 131 -6 145 -20z"/>
<path d="M190 250 l0 -80 53 30 c87 51 84 49 67 60 -8 5 -39 23 -67 40 l-53
30 0 -80z m61 23 c16 -10 29 -20 29 -23 0 -6 -54 -40 -64 -40 -3 0 -6 18 -6
40 0 46 1 46 41 23z"/>
</g>
</svg>
